<svg width="145" height="124" viewBox="0 0 145 124" fill="none" xmlns="http://www.w3.org/2000/svg">
<path d="M121.222 57.748H140.391C140.18 56.7836 139.442 56.0301 138.493 55.7889C138.553 55.578 138.568 55.3519 138.568 55.1259C138.568 53.6339 137.362 52.4133 135.855 52.4133C135.433 52.4133 135.027 52.5188 134.665 52.6845C134.092 51.4187 132.811 50.5295 131.334 50.5295C129.752 50.5295 128.411 51.5242 127.898 52.9257C127.446 52.6243 126.919 52.4585 126.331 52.4585C124.764 52.4585 123.483 53.7394 123.483 55.3067C123.483 55.4423 123.498 55.578 123.513 55.7136C122.383 55.8191 121.464 56.6479 121.222 57.748Z" fill="#EAEAEA"/>
<path d="M8.87625 65.5089H29.1302C28.9042 64.4992 28.1205 63.6855 27.1259 63.4443C27.1862 63.2183 27.2163 62.9922 27.2163 62.7361C27.2163 61.1537 25.9354 59.8728 24.3531 59.8728C23.901 59.8728 23.479 59.9783 23.1023 60.1591C22.4995 58.8179 21.1432 57.8835 19.5759 57.8835C17.9031 57.8835 16.4866 58.9384 15.944 60.4153C15.4769 60.0988 14.9042 59.918 14.2864 59.918C12.6287 59.918 11.2724 61.2592 11.2724 62.932C11.2724 63.0827 11.2874 63.2183 11.3025 63.3539C10.112 63.4745 9.13244 64.3485 8.87625 65.5089Z" fill="#EAEAEA"/>
<path d="M118.751 11.1819H142.878C142.607 9.97631 141.672 9.01183 140.482 8.7255C140.542 8.45424 140.587 8.18298 140.587 7.89665C140.587 6.01291 139.065 4.49085 137.181 4.49085C136.639 4.49085 136.142 4.61141 135.69 4.83746C134.966 3.24005 133.354 2.12488 131.5 2.12488C129.511 2.12488 127.823 3.37568 127.175 5.13886C126.617 4.76211 125.939 4.55114 125.216 4.55114C123.242 4.55114 121.629 6.16361 121.629 8.13777C121.629 8.30354 121.644 8.48438 121.659 8.65015C120.213 8.75564 119.052 9.81054 118.751 11.1819Z" fill="#EAEAEA"/>
<path d="M4.57764e-05 23.2981H21.972C21.7309 22.198 20.8869 21.3239 19.7868 21.0526C19.8471 20.8115 19.8773 20.5553 19.8773 20.2991C19.8773 18.5812 18.4908 17.1947 16.7729 17.1947C16.2906 17.1947 15.8235 17.3002 15.4166 17.5112C14.7535 16.0645 13.2917 15.0548 11.6039 15.0548C9.79549 15.0548 8.25836 16.2001 7.67063 17.7975C7.15826 17.466 6.54039 17.2701 5.87731 17.2701C4.06892 17.2701 2.60714 18.7319 2.60714 20.5403C2.60714 20.691 2.62221 20.8567 2.63728 21.0074C1.34127 21.0978 0.271304 22.0473 4.57764e-05 23.2981Z" fill="#EAEAEA"/>
<path d="M2.13995 118.148H19.0032C18.8224 117.304 18.1593 116.641 17.3304 116.43C17.3756 116.249 17.4058 116.053 17.4058 115.843C17.4058 114.531 16.3358 113.461 15.0247 113.461C14.648 113.461 14.3014 113.552 13.9849 113.703C13.4725 112.587 12.3574 111.819 11.0463 111.819C9.65984 111.819 8.48439 112.693 8.03229 113.929C7.64047 113.672 7.17331 113.522 6.66093 113.522C5.2745 113.522 4.15932 114.637 4.15932 116.023C4.15932 116.144 4.17439 116.264 4.18946 116.385C3.17978 116.46 2.35093 117.199 2.13995 118.148Z" fill="#EAEAEA"/>
<path d="M47.621 8.03226H69.0052C68.7641 6.9623 67.9503 6.11838 66.8804 5.84713C66.9406 5.60601 66.9708 5.36489 66.9708 5.1087C66.9708 3.43594 65.6145 2.09472 63.9568 2.09472C63.4896 2.09472 63.0375 2.20021 62.6306 2.39612C61.9826 0.979544 60.5661 0 58.9084 0C57.1452 0 55.6533 1.11518 55.0806 2.66738C54.5833 2.33584 53.9805 2.13993 53.3325 2.13993C51.5844 2.13993 50.1527 3.5565 50.1527 5.31968C50.1527 5.47038 50.1678 5.62108 50.1829 5.77178C48.917 5.87727 47.8923 6.8116 47.621 8.03226Z" fill="#EAEAEA"/>
<path d="M127.175 113.13H144.038C143.857 112.286 143.194 111.623 142.366 111.412C142.411 111.231 142.441 111.035 142.441 110.824C142.441 109.513 141.371 108.443 140.06 108.443C139.683 108.443 139.336 108.534 139.02 108.684C138.508 107.569 137.392 106.801 136.081 106.801C134.695 106.801 133.52 107.675 133.067 108.91C132.676 108.654 132.208 108.503 131.696 108.503C130.31 108.503 129.194 109.619 129.194 111.005C129.194 111.126 129.21 111.246 129.225 111.367C128.2 111.427 127.386 112.165 127.175 113.13Z" fill="#EAEAEA"/>
<path d="M73.948 118.284C72.6671 119.113 70.8436 119.113 69.5627 118.284L50.0773 105.685L35.9567 96.5531C33.425 94.9255 34.8868 91.6704 38.1419 91.6704H71.7478H105.354C108.609 91.6704 110.071 94.9104 107.539 96.5531L93.4183 105.685L73.948 118.284Z" fill="#D67412"/>
<path d="M62.2086 117.696C61.9675 117.982 61.5907 117.982 61.3496 117.696L53.9352 108.775L47.1236 100.607C46.7469 100.14 47.0031 99.356 47.5456 99.356H61.8017H76.0579C76.6004 99.356 76.8716 100.155 76.4798 100.607L69.6682 108.775L62.2086 117.696Z" fill="#FC842C"/>
<path d="M80.6693 118.269C80.4131 118.585 79.9911 118.585 79.735 118.269L71.5369 108.443L64.0321 99.4314C63.6101 98.919 63.9115 98.0449 64.4993 98.0449H80.2021H95.905C96.5078 98.0449 96.7941 98.919 96.3721 99.4314L88.8673 108.443L80.6693 118.269Z" fill="#FC842C"/>
<path d="M71.6122 123.483C71.4012 123.739 71.0697 123.739 70.8587 123.483L64.2731 115.586L58.2301 108.353C57.8835 107.946 58.1246 107.238 58.6069 107.238H71.2354H83.864C84.3463 107.238 84.5874 107.946 84.2408 108.353L78.1977 115.586L71.6122 123.483Z" fill="#FC842C"/>
<path d="M86.1547 101.134H82.553C82.131 101.134 81.7844 100.743 81.7844 100.26C81.7844 99.778 82.131 99.3862 82.553 99.3862H86.1547C86.5766 99.3862 86.9232 99.778 86.9232 100.26C86.9232 100.743 86.5766 101.134 86.1547 101.134Z" fill="#F99943"/>
<path d="M88.5508 101.134H88.0384C87.6164 101.134 87.2698 100.743 87.2698 100.26C87.2698 99.778 87.6164 99.3862 88.0384 99.3862H88.5508C88.9727 99.3862 89.3193 99.778 89.3193 100.26C89.3193 100.743 88.9727 101.134 88.5508 101.134Z" fill="#F99943"/>
<path d="M70.9793 103.892H66.7296C66.2323 103.892 65.8254 103.44 65.8254 102.867C65.8254 102.295 66.2323 101.843 66.7296 101.843H70.9793C71.4766 101.843 71.8835 102.295 71.8835 102.867C71.8835 103.44 71.4766 103.892 70.9793 103.892Z" fill="#F99943"/>
<path d="M73.8125 103.892H73.2097C72.7124 103.892 72.3055 103.44 72.3055 102.867C72.3055 102.295 72.7124 101.843 73.2097 101.843H73.8125C74.3098 101.843 74.7167 102.295 74.7167 102.867C74.7167 103.44 74.3098 103.892 73.8125 103.892Z" fill="#F99943"/>
<path d="M71.5369 117.606H69.0805C68.7942 117.606 68.5531 117.334 68.5531 117.018C68.5531 116.701 68.7942 116.43 69.0805 116.43H71.5369C71.8232 116.43 72.0644 116.701 72.0644 117.018C72.0644 117.334 71.8383 117.606 71.5369 117.606Z" fill="#F99943"/>
<path d="M73.1795 117.606H72.8329C72.5466 117.606 72.3055 117.334 72.3055 117.018C72.3055 116.701 72.5466 116.43 72.8329 116.43H73.1795C73.4659 116.43 73.707 116.701 73.707 117.018C73.707 117.334 73.4809 117.606 73.1795 117.606Z" fill="#F99943"/>
<path d="M58.7274 103.018C58.7274 103.741 58.2151 104.314 57.5671 104.314H54.0708C53.4379 104.314 52.9105 103.726 52.9105 103.018C52.9105 102.295 53.4228 101.722 54.0708 101.722H57.5671C58.2151 101.722 58.7274 102.295 58.7274 103.018Z" fill="#F99943"/>
<path d="M61.3345 104.887C61.3345 105.61 60.8222 106.183 60.1742 106.183H56.6779C56.045 106.183 55.5176 105.595 55.5176 104.887C55.5176 104.163 56.0299 103.591 56.6779 103.591H60.1742C60.8222 103.591 61.3345 104.163 61.3345 104.887Z" fill="#F99943"/>
<path d="M81.483 105.926C81.483 105.369 81.0761 104.902 80.5788 104.902H77.821C77.3237 104.902 76.9168 105.354 76.9168 105.926C76.9168 106.484 77.3237 106.951 77.821 106.951H80.5788C81.0761 106.951 81.483 106.499 81.483 105.926Z" fill="#F99943"/>
<path d="M83.5325 104.465C83.5325 103.907 83.1256 103.44 82.6283 103.44H79.8856C79.3883 103.44 78.9814 103.892 78.9814 104.465C78.9814 105.022 79.3883 105.489 79.8856 105.489H82.6283C83.1256 105.474 83.5325 105.022 83.5325 104.465Z" fill="#F99943"/>
<path d="M82.4174 109.453C81.8146 109.453 81.3173 110.01 81.3173 110.688C81.3173 110.884 81.3625 111.065 81.4378 111.231H80.7145C80.1117 111.231 79.6144 111.789 79.6144 112.467C79.6144 113.16 80.1117 113.702 80.7145 113.702H84.4367L88.0083 109.423H82.4174V109.453Z" fill="#F99943"/>
<path d="M61.0632 110.342H60.3399C60.4152 110.176 60.4604 109.995 60.4604 109.799C60.4604 109.106 59.9631 108.564 59.3603 108.564H53.7543L53.9352 108.79L57.3108 112.844H61.0632C61.666 112.844 62.1633 112.286 62.1633 111.608C62.1633 110.9 61.666 110.342 61.0632 110.342Z" fill="#F99943"/>
<path d="M72.5917 108.79C72.5917 109.438 72.1246 109.95 71.5519 109.95H66.7296C66.1569 109.95 65.6897 109.423 65.6897 108.79C65.6897 108.142 66.1569 107.629 66.7296 107.629H71.5519C72.1397 107.629 72.5917 108.142 72.5917 108.79Z" fill="#F99943"/>
<path d="M70.693 110.628C70.693 110.252 70.9643 109.95 71.2958 109.95H69.0052C69.3367 109.95 69.608 110.252 69.608 110.628C69.608 111.005 69.3367 111.306 69.0052 111.306H71.2958C70.9492 111.306 70.693 111.005 70.693 110.628Z" fill="#F99943"/>
<path d="M74.8071 112.331C74.8071 112.904 74.4002 113.356 73.9029 113.356H68.1914C67.6941 113.356 67.2872 112.904 67.2872 112.331C67.2872 111.759 67.6941 111.306 68.1914 111.306H73.9029C74.4002 111.306 74.8071 111.774 74.8071 112.331Z" fill="#F99943"/>
<path d="M113.808 84.3916C113.672 84.1505 113.446 83.9998 113.19 83.9998H30.3207C30.0645 83.9998 29.8384 84.1505 29.7028 84.3916C29.5672 84.6327 29.5672 84.9341 29.6877 85.1903L35.0978 96.553C35.2184 96.8243 35.4746 96.975 35.7308 96.975H107.795C108.066 96.975 108.307 96.8092 108.428 96.553L113.838 85.1903C113.944 84.9341 113.929 84.6327 113.808 84.3916Z" fill="#BC5800"/>
<path d="M49.2033 94.6994H42.2108C41.382 94.6994 40.7189 93.9459 40.7189 93.0116C40.7189 92.0772 41.382 91.3237 42.2108 91.3237H49.2033C50.0321 91.3237 50.6952 92.0772 50.6952 93.0116C50.6952 93.9459 50.0321 94.6994 49.2033 94.6994Z" fill="#AA5000"/>
<path d="M53.8599 94.6994H52.8653C52.0364 94.6994 51.3733 93.9459 51.3733 93.0116C51.3733 92.0772 52.0364 91.3237 52.8653 91.3237H53.8599C54.6887 91.3237 55.3518 92.0772 55.3518 93.0116C55.3518 93.9459 54.6887 94.6994 53.8599 94.6994Z" fill="#AA5000"/>
<path d="M93.3732 91.4744H99.7629C100.516 91.4744 101.134 92.1676 101.134 93.0115C101.134 93.8554 100.516 94.5486 99.7629 94.5486H93.3732C92.6197 94.5486 92.0019 93.8554 92.0019 93.0115C92.0019 92.1676 92.6197 91.4744 93.3732 91.4744Z" fill="#AA5000"/>
<path d="M89.1084 91.4744H90.0277C90.7812 91.4744 91.399 92.1676 91.399 93.0115C91.399 93.8554 90.7812 94.5486 90.0277 94.5486H89.1084C88.3549 94.5486 87.7371 93.8554 87.7371 93.0115C87.7371 92.1676 88.3549 91.4744 89.1084 91.4744Z" fill="#AA5000"/>
<path d="M73.9782 91.8964C73.9782 92.8157 73.3151 93.5692 72.5013 93.5692H68.3571C67.5433 93.5692 66.8803 92.8157 66.8803 91.8964C66.8803 90.9771 67.5433 90.2236 68.3571 90.2236H72.5013C73.3151 90.2236 73.9782 90.9771 73.9782 91.8964Z" fill="#AA5000"/>
<path d="M77.9867 93.735C77.9867 94.6844 77.2935 95.468 76.4496 95.468H72.215C71.371 95.468 70.6778 94.6995 70.6778 93.735C70.6778 92.7856 71.371 92.002 72.215 92.002H76.4496C77.2935 92.002 77.9867 92.7856 77.9867 93.735Z" fill="#AA5000"/>
<path d="M114.125 88.4152C114.125 88.7618 113.883 89.0331 113.567 89.0331H28.9945C28.6931 89.0331 28.437 88.7618 28.437 88.4152V81.468C28.437 81.1214 28.6781 80.8501 28.9945 80.8501H113.567C113.868 80.8501 114.125 81.1214 114.125 81.468V88.4152Z" fill="#DFDFDF"/>
<path d="M113.567 80.8501H112.994V87.285C112.994 87.6316 112.753 87.9028 112.437 87.9028H28.437V88.4303C28.437 88.7769 28.6781 89.0481 28.9945 89.0481H113.567C113.868 89.0481 114.125 88.7769 114.125 88.4303V81.483C114.125 81.1214 113.868 80.8501 113.567 80.8501Z" fill="#C3C3C3"/>
<path d="M36.4993 84.497H32.5811C32.1139 84.497 31.7372 84.075 31.7372 83.5476C31.7372 83.0201 32.1139 82.5981 32.5811 82.5981H36.4993C36.9664 82.5981 37.3432 83.0201 37.3432 83.5476C37.3432 84.075 36.9664 84.497 36.4993 84.497Z" fill="white"/>
<path d="M39.1216 84.497H38.564C38.0968 84.497 37.72 84.075 37.72 83.5476C37.72 83.0201 38.0968 82.5981 38.564 82.5981H39.1216C39.5887 82.5981 39.9655 83.0201 39.9655 83.5476C39.9504 84.075 39.5736 84.497 39.1216 84.497Z" fill="white"/>
<path d="M81.6338 108.79H103.862C103.621 107.674 102.762 106.8 101.662 106.514C101.722 106.273 101.752 106.017 101.752 105.746C101.752 104.012 100.351 102.611 98.6176 102.611C98.1203 102.611 97.6531 102.732 97.2462 102.927C96.5832 101.451 95.1063 100.441 93.3733 100.441C91.5498 100.441 89.9825 101.601 89.3948 103.214C88.8673 102.867 88.2495 102.671 87.5864 102.671C85.7629 102.671 84.2861 104.148 84.2861 105.972C84.2861 106.137 84.3012 106.288 84.3162 106.439C82.9901 106.559 81.905 107.524 81.6338 108.79Z" fill="#EAEAEA"/>
<path d="M37.8707 105.55H64.3787C64.0924 104.223 63.0676 103.169 61.7414 102.837C61.8168 102.551 61.862 102.234 61.862 101.918C61.862 99.8532 60.1892 98.1804 58.1247 98.1804C57.5369 98.1804 56.9794 98.316 56.482 98.5572C55.6833 96.809 53.9202 95.5884 51.8706 95.5884C49.6855 95.5884 47.8319 96.9597 47.1236 98.9038C46.5058 98.4969 45.7673 98.2558 44.9686 98.2558C42.7986 98.2558 41.0354 100.019 41.0354 102.189C41.0354 102.385 41.0505 102.566 41.0806 102.747C39.4983 102.897 38.2022 104.043 37.8707 105.55Z" fill="#EAEAEA"/>
<path d="M70.7683 80.3377C89.553 80.3377 104.781 65.1097 104.781 46.3249C104.781 27.5402 89.553 12.3121 70.7683 12.3121C51.9835 12.3121 36.7555 27.5402 36.7555 46.3249C36.7555 65.1097 51.9835 80.3377 70.7683 80.3377Z" fill="#00D7FF"/>
<path d="M90.4537 66.0055C101.324 55.1357 101.324 37.5123 90.4537 26.6425C79.5839 15.7727 61.9605 15.7727 51.0907 26.6425C40.2209 37.5123 40.2209 55.1357 51.0907 66.0055C61.9605 76.8753 79.5839 76.8753 90.4537 66.0055Z" fill="white"/>
<path d="M70.7683 67.4378C82.4287 67.4378 91.8813 57.9852 91.8813 46.3249C91.8813 34.6645 82.4287 25.2119 70.7683 25.2119C59.1079 25.2119 49.6553 34.6645 49.6553 46.3249C49.6553 57.9852 59.1079 67.4378 70.7683 67.4378Z" fill="#00D7FF"/>
<path d="M81.6093 57.1611C87.5944 51.1759 87.5944 41.472 81.6093 35.4869C75.6241 29.5017 65.9203 29.5017 59.9351 35.4869C53.9499 41.472 53.9499 51.1759 59.9351 57.1611C65.9203 63.1462 75.6241 63.1462 81.6093 57.1611Z" fill="white"/>
<path d="M78.8734 50.5719C81.2195 46.0979 79.4945 40.569 75.0205 38.2229C70.5464 35.8767 65.0176 37.6017 62.6714 42.0758C60.3253 46.5498 62.0503 52.0787 66.5243 54.4248C70.9984 56.771 76.5272 55.046 78.8734 50.5719Z" fill="#00D7FF"/>
<path d="M71.3626 51.264C74.0899 50.9388 76.0372 48.4643 75.712 45.737C75.3868 43.0096 72.9123 41.0623 70.1849 41.3875C67.4576 41.7127 65.5103 44.1873 65.8355 46.9146C66.1607 49.6419 68.6352 51.5892 71.3626 51.264Z" fill="white"/>
<path d="M90.3591 37.72L93.3731 25.7997L111.472 18.0537L107.78 29.4315L118.585 34.3443L100.863 42.6629L90.3591 37.72Z" fill="#FF7B00"/>
<path d="M70.1956 48.3894C69.6078 48.1784 69.1105 47.7414 68.8393 47.1235C68.3118 45.933 68.8393 44.5315 70.0298 44.004L109.423 26.3722C110.613 25.8448 112.015 26.3722 112.542 27.5628C113.069 28.7533 112.542 30.1548 111.352 30.6822L71.9587 48.314C71.3861 48.5853 70.7532 48.5853 70.1956 48.3894Z" fill="#FF9557"/>
</svg>
