<svg width="15" height="15" viewBox="0 0 15 15" fill="none" xmlns="http://www.w3.org/2000/svg">
<path d="M6.875 1.875h-4.375c-0.517 0-0.987 0.211-1.326 0.549s-0.549 0.808-0.549 1.326v8.75c0 0.518 0.211 0.987 0.549 1.326s0.808 0.549 1.326 0.549h8.75c0.518 0 0.987-0.211 1.326-0.549s0.549-0.808 0.549-1.326v-4.375c0-0.345-0.28-0.625-0.625-0.625s-0.625 0.28-0.625 0.625v4.375c0 0.172-0.069 0.328-0.183 0.442s-0.269 0.183-0.442 0.183h-8.75c-0.172 0-0.328-0.069-0.442-0.183s-0.183-0.269-0.183-0.442v-8.75c0-0.172 0.069-0.328 0.183-0.442s0.269-0.183 0.442-0.183h4.375c0.345 0 0.625-0.28 0.625-0.625s-0.28-0.625-0.625-0.625zM11.121 1.121l-5.937 5.937c-0.076 0.076-0.136 0.175-0.164 0.291l-0.625 2.5c-0.024 0.094-0.026 0.199 0 0.303 0.084 0.335 0.423 0.539 0.758 0.455l2.5-0.625c0.104-0.026 0.206-0.081 0.291-0.164l5.937-5.937c0.381-0.381 0.571-0.881 0.571-1.379s-0.191-0.999-0.571-1.379-0.882-0.572-1.38-0.572-0.999 0.191-1.379 0.571zM12.004 2.004c0.137-0.137 0.315-0.205 0.496-0.205s0.359 0.068 0.496 0.205 0.205 0.315 0.205 0.496-0.068 0.359-0.205 0.496l-5.815 5.815-1.321 0.331 0.331-1.321z" fill="#00D7FF"></path>
</svg>