<svg id="icon-trash" viewBox="0 0 10 10">
<path d="M7.5 2.917v5.417c0 0.115-0.046 0.219-0.122 0.295s-0.18 0.122-0.295 0.122h-4.167c-0.115 0-0.219-0.046-0.295-0.122s-0.122-0.18-0.122-0.295v-5.417zM7.083 2.083v-0.417c0-0.345-0.14-0.658-0.366-0.884s-0.539-0.366-0.884-0.366h-1.667c-0.345 0-0.658 0.14-0.884 0.366s-0.366 0.539-0.366 0.884v0.417h-1.667c-0.23 0-0.417 0.187-0.417 0.417s0.187 0.417 0.417 0.417h0.417v5.417c0 0.345 0.14 0.658 0.366 0.884s0.539 0.366 0.884 0.366h4.167c0.345 0 0.658-0.14 0.884-0.366s0.366-0.539 0.366-0.884v-5.417h0.417c0.23 0 0.417-0.187 0.417-0.417s-0.187-0.417-0.417-0.417zM3.75 2.083v-0.417c0-0.115 0.046-0.219 0.122-0.295s0.18-0.122 0.295-0.122h1.667c0.115 0 0.219 0.046 0.295 0.122s0.122 0.18 0.122 0.295v0.417zM3.75 4.583v2.5c0 0.23 0.187 0.417 0.417 0.417s0.417-0.187 0.417-0.417v-2.5c0-0.23-0.187-0.417-0.417-0.417s-0.417 0.187-0.417 0.417zM5.417 4.583v2.5c0 0.23 0.187 0.417 0.417 0.417s0.417-0.187 0.417-0.417v-2.5c0-0.23-0.187-0.417-0.417-0.417s-0.417 0.187-0.417 0.417z" fill="#000"></path>
</svg>